Coordinates
version=1
nRows=4
nColumns=63
inDegrees=yes

Units are S.I. units (second, meters, Newtons, ...)
If the header above contains a line with 'inDegrees', this indicates whether rotational values are in degrees (yes) or radians (no).

endheader
time	pelvis_tilt	pelvis_list	pelvis_rotation	pelvis_tx	pelvis_ty	pelvis_tz	hip_flexion_r	hip_adduction_r	hip_rotation_r	knee_angle_r	knee_angle_r_beta	ankle_angle_r	subtalar_angle_r	mtp_angle_r	hip_flexion_l	hip_adduction_l	hip_rotation_l	knee_angle_l	knee_angle_l_beta	ankle_angle_l	subtalar_angle_l	mtp_angle_l	L5_S1_Flex_Ext	L5_S1_Lat_Bending	L5_S1_axial_rotation	L4_L5_Flex_Ext	L4_L5_Lat_Bending	L4_L5_axial_rotation	L3_L4_Flex_Ext	L3_L4_Lat_Bending	L3_L4_axial_rotation	L2_L3_Flex_Ext	L2_L3_Lat_Bending	L2_L3_axial_rotation	L1_L2_Flex_Ext	L1_L2_Lat_Bending	L1_L2_axial_rotation	L1_T12_Flex_Ext	L1_T12_Lat_Bending	L1_T12_axial_rotation	Abs_r3	Abs_r2	Abs_r1	Abs_t1	Abs_t2	neck_flexion	neck_bending	neck_rotation	arm_flex_r	arm_add_r	arm_rot_r	elbow_flex_r	pro_sup_r	wrist_flex_r	wrist_dev_r	arm_flex_l	arm_add_l	arm_rot_l	elbow_flex_l	pro_sup_l	wrist_flex_l	wrist_dev_l
      9.46666667	      4.45007375	     -1.85206248	    177.36228602	      2.43027020	      0.89279669	      0.58765866	      8.65558460	      0.88195245	      5.62567661	     15.32070168	      0.26739669	     17.87796628	    -17.02956197	      0.00000000	      6.35836065	      3.08581190	      0.22943118	     12.62181543	      0.22029224	     14.23021798	    -17.47636617	      0.00000000	      0.00305197	     -0.26488400	     -0.07342601	      0.00566782	     -0.35229572	     -0.07801514	      0.00501409	     -0.64403896	     -0.07801514	      0.00348810	     -0.64403896	     -0.06424776	      0.00283406	     -0.54015145	     -0.05965864	      0.00174390	     -0.41030532	     -0.05506951	      0.02179995	     -2.99642078	     -0.40837346	      0.00000000	      0.00000000	      0.00000000	      0.00000000	      0.00000000	     -9.34365539	      0.51059621	    -20.66280867	     26.33937877	     59.22679830	      0.00000000	      5.00000014	     -7.93857506	    -10.67702149	     39.82272396	     18.55321846	     59.98334587	      0.00000000	      5.00000014
      9.50000000	      4.45334189	     -1.83545351	    177.57067672	      2.42999217	      0.89302646	      0.58740229	      7.38909650	      0.98241664	      6.50270570	     12.80079526	      0.22341602	     16.60339884	    -17.97347139	      0.00000000	      6.41578719	      3.13229661	      0.62895271	     12.69506487	      0.22157068	     13.66451188	    -17.66806456	      0.00000000	      0.00312932	     -0.26853753	     -0.13505959	      0.00581146	     -0.35715492	     -0.14350081	      0.00514116	     -0.65292215	     -0.14350081	      0.00357650	     -0.65292215	     -0.11817714	      0.00290588	     -0.54760173	     -0.10973591	      0.00178809	     -0.41596464	     -0.10129469	      0.02235240	     -3.03775027	     -0.75116090	      0.00000000	      0.00000000	      0.00000000	      0.00000000	      0.00000000	     -9.21089561	      0.03027958	    -18.95886204	     25.92668202	     62.21334336	      0.00000000	      5.00000014	     -8.18248441	    -10.75914671	     38.62056758	     18.88373644	     61.82881318	      0.00000000	      5.00000014
      9.53333333	      4.45846441	     -1.86427161	    177.41330664	      2.42983346	      0.89309274	      0.58678274	      6.48838704	      0.99851902	      7.43417229	     10.95631925	      0.19122384	     15.67584244	    -18.37045831	      0.00000000	      6.38149302	      3.19302944	      0.40927170	     12.54702234	      0.21898685	     13.01361923	    -17.69588165	      0.00000000	      0.00372503	     -0.27392893	     -0.11107702	      0.00691774	     -0.36432547	     -0.11801933	      0.00611984	     -0.66603079	     -0.11801933	      0.00425733	     -0.66603079	     -0.09719239	      0.00345906	     -0.55859586	     -0.09025008	      0.00212848	     -0.42431591	     -0.08330776	      0.02660748	     -3.09873879	     -0.61777705	      0.00000000	      0.00000000	      0.00000000	      0.00000000	      0.00000000	     -9.06523492	     -0.29717763	    -17.80920693	     25.51875969	     62.81307097	      0.00000000	      5.00000014	     -8.28751197	    -10.79862392	     37.85896618	     18.96648514	     62.10774500	      0.00000000	      5.00000014
      9.56666667	      4.48658456	     -1.74893718	    177.93066942	      2.42982480	      0.89310848	      0.58672680	      6.04989331	      1.04562230	      7.10000702	     10.07634181	      0.17586534	     15.12142871	    -18.23136377	      0.00000000	      6.49707889	      3.17106863	      0.97576610	     12.56937806	      0.21937703	     12.39652896	    -18.03097387	      0.00000000	      0.00337441	     -0.26654727	     -0.20273743	      0.00626661	     -0.35450787	     -0.21540852	      0.00554381	     -0.64808304	     -0.21540852	      0.00385661	     -0.64808304	     -0.17739525	      0.00313347	     -0.54354320	     -0.16472416	      0.00192814	     -0.41288172	     -0.15205307	      0.02410305	     -3.01523605	     -1.12756478	      0.00000000	      0.00000000	      0.00000000	      0.00000000	      0.00000000	     -8.67892368	     -1.73453307	    -11.21965581	     24.40228675	     64.10673717	      0.00000000	      5.00000014	     -8.18248450	    -10.95434059	     38.50844836	     18.90082972	     61.66463521	      0.00000000	      5.00000014
